<svg xmlns="http://www.w3.org/2000/svg" viewBox="0 0 100 100">
  <defs>
    <linearGradient id="grad" x1="0%" y1="0%" x2="100%" y2="100%">
      <stop offset="0%" style="stop-color:#667eea;stop-opacity:1" />
      <stop offset="100%" style="stop-color:#764ba2;stop-opacity:1" />
    </linearGradient>
  </defs>
  <rect width="100" height="100" rx="20" fill="url(#grad)"/>
  <path d="M50 25 L50 55 M40 45 L50 55 L60 45" stroke="white" stroke-width="6" stroke-linecap="round" stroke-linejoin="round" fill="none"/>
  <path d="M35 60 Q35 70 45 70 L55 70 Q65 70 65 60" stroke="white" stroke-width="6" stroke-linecap="round" fill="none"/>
  <circle cx="50" cy="50" r="3" fill="white"/>
</svg>


  <defs>
    <linearGradient id="grad" x1="0%" y1="0%" x2="100%" y2="100%">
      <stop offset="0%" style="stop-color:#667eea;stop-opacity:1" />
      <stop offset="100%" style="stop-color:#764ba2;stop-opacity:1" />
    </linearGradient>
  </defs>
  <rect width="100" height="100" rx="20" fill="url(#grad)"/>
  <path d="M50 25 L50 55 M40 45 L50 55 L60 45" stroke="white" stroke-width="6" stroke-linecap="round" stroke-linejoin="round" fill="none"/>
  <path d="M35 60 Q35 70 45 70 L55 70 Q65 70 65 60" stroke="white" stroke-width="6" stroke-linecap="round" fill="none"/>
  <circle cx="50" cy="50" r="3" fill="white"/>
</svg>







